{
  "accessors": [
    {
      "bufferView": 2,
      "componentType": 5126,
      "count": 60,
      "max": [
        0.9341724514961243,
        0.9341724514961243,
        0.9341724514961243
      ],
      "min": [
        -0.9341724514961243,
        -0.9341724514961243,
        -0.9341724514961243
      ],
      "type": "VEC3"
    },
    {
      "bufferView": 2,
      "byteOffset": 720,
      "componentType": 5126,
      "count": 60,
      "max": [
        0.8506509065628052,
        0.8506509065628052,
        0.8506509065628052
      ],
      "min": [
        -0.8506509065628052,
        -0.8506509065628052,
        -0.8506509065628052
      ],
      "type": "VEC3"
    },
    {
      "bufferView": 1,
      "componentType": 5126,
      "count": 60,
      "max": [
        1.25,
        0.8838602304458618
      ],
      "min": [
        0.125,
        0.11613974720239639
      ],
      "type": "VEC2"
    },
    {
      "bufferView": 0,
      "componentType": 5125,
      "count": 108,
      "type": "SCALAR"
    }
  ],
  "asset": {
    "extras": {
      "author": "lauselfe (https://sketchfab.com/miyulauri)",
      "license": "CC-BY-4.0 (http://creativecommons.org/licenses/by/4.0/)",
      "source": "https://sketchfab.com/3d-models/dodecaedro-7a622f3b0f974ae58bca9fafd7f42263",
      "title": "Dodecaedro"
    },
    "generator": "Sketchfab-12.65.0",
    "version": "2.0"
  },
  "bufferViews": [
    {
      "buffer": 0,
      "byteLength": 432,
      "name": "floatBufferViews",
      "target": 34963
    },
    {
      "buffer": 0,
      "byteLength": 480,
      "byteOffset": 432,
      "byteStride": 8,
      "name": "floatBufferViews",
      "target": 34962
    },
    {
      "buffer": 0,
      "byteLength": 1440,
      "byteOffset": 912,
      "byteStride": 12,
      "name": "floatBufferViews",
      "target": 34962
    }
  ],
  "buffers": [
    {
      "byteLength": 2352,
      "uri": "scene.bin"
    }
  ],
  "materials": [
    {
      "doubleSided": true,
      "name": "phong4",
      "pbrMetallicRoughness": {
        "baseColorFactor": [
          0.353,
          1.0,
          0.726265,
          1.0
        ],
        "metallicFactor": 0.0,
        "roughnessFactor": 0.8942628736559436
      }
    }
  ],
  "meshes": [
    {
      "name": "pPlatonic1_phong4_0",
      "primitives": [
        {
          "attributes": {
            "NORMAL": 1,
            "POSITION": 0,
            "TEXCOORD_0": 2
          },
          "indices": 3,
          "material": 0,
          "mode": 4
        }
      ]
    }
  ],
  "nodes": [
    {
      "children": [
        1
      ],
      "matrix": [
        1.0,
        0.0,
        0.0,
        0.0,
        0.0,
        2.220446049250313e-16,
        -1.0,
        0.0,
        0.0,
        1.0,
        2.220446049250313e-16,
        0.0,
        0.0,
        0.0,
        0.0,
        1.0
      ],
      "name": "Sketchfab_model"
    },
    {
      "children": [
        2
      ],
      "matrix": [
        1.0,
        0.0,
        0.0,
        0.0,
        0.0,
        0.0,
        1.0,
        0.0,
        0.0,
        -1.0,
        0.0,
        0.0,
        0.0,
        0.0,
        0.0,
        1.0
      ],
      "name": "d2b0938a0d56463099d9a3c4be6107de.fbx"
    },
    {
      "children": [
        3
      ],
      "name": "RootNode"
    },
    {
      "children": [
        4
      ],
      "matrix": [
        2.683000087738037,
        0.0,
        0.0,
        0.0,
        0.0,
        2.683000087738037,
        0.0,
        0.0,
        0.0,
        0.0,
        2.683000087738037,
        0.0,
        0.20594921708106995,
        1.6560287475585938,
        8.531411170959473,
        1.0
      ],
      "name": "pPlatonic1"
    },
    {
      "mesh": 0,
      "name": "pPlatonic1_phong4_0"
    }
  ],
  "scene": 0,
  "scenes": [
    {
      "name": "Sketchfab_Scene",
      "nodes": [
        0
      ]
    }
  ]
}
